{"title":"LÃƒÂ¥t.den.rÃƒÂ¤tte.komma.in.2008.DVDRIP.XviD-ZEKTORM","uid":4883900,"size":740295602,"categoryP":"video","categoryS":"movies","magnet":"?xt=urn:btih:011caf7e8b283121f182a04dc137ba7843c68198&amp;dn=L%C3%83%C2%A5t.den.r%C3%83%C2%A4tte.komma.in.2008.DVDRIP.XviD-ZEKTORM&amp;tr=udp%3A%2F%2Ftracker.openbittorrent.com%3A80&amp;tr=udp%3A%2F%2Fopen.demonii.com%3A1337&amp;tr=udp%3A%2F%2Ftracker.coppersurfer.tk%3A6969&amp;tr=udp%3A%2F%2Fexodus.desync.com%3A6969","seeders":15,"leechers":2,"uploader":"blowley","files":4,"time":1241553194,"description":"Title                            : LÃƒÂ¥t den rÃƒÂ¤tte komma in\nAlso Known As                    : Let the Right One In\nYear                             : 2008\nGenre                            : Drama | Horror | Romance | Thriller\niMDB URL                         : http://www.imdb.com/title/tt1139797/\nAwards                           : 46 wins &amp; 11 nominations\n\nComplete name                    : LÃƒÂ¥t.den.rÃƒÂ¤tte.komma.in.2008.DVDRIP.XviD-ZEKTORM.avi\nFormat                           : AVI\nFile size                        : 702 MiB\nDuration                         : 1h 54mn\nOverall bit rate                 : 857 Kbps\nSubtitles                        : English, Spanish (Format: VobSub)\nSource                           : DVD NTSC\n\nVideo\nFormat                           : MPEG-4 Visual\nFormat profile                   : Streaming Video@L1\nCodec ID                         : DX50\nCodec ID/Hint                    : DivX 5\nDuration                         : 1h 54mn\nBit rate                         : 722 Kbps\nWidth                            : 720 pixels\nHeight                           : 320 pixels\nDisplay aspect ratio             : 2.25\nFrame rate                       : 23.976 fps\nResolution                       : 24 bits\nColorimetry                      : 4:2:0\nScan type                        : Progressive\nBits/(Pixel*Frame)               : 0.131\nStream size                      : 591 MiB (84%)\nWriting library                  : XviD\n\nAudio\nLanguage                         : Swedish \nFormat                           : MPEG Audio\nFormat version                   : Version 1\nFormat profile                   : Layer 3\nCodec ID                         : 55\nCodec ID/Hint                    : MP3\nDuration                         : 1h 54mn\nBit rate mode                    : Constant\nBit rate                         : 128 Kbps\nMinimum bit rate                 : 128 Kbps\nChannel(s)                       : 2 channels\nSampling rate                    : 48.0 KHz\nResolution                       : 16 bits\nStream size                      : 105 MiB (15%)\nWriting library                  : LAME3.98r\nEncoding settings                : CBR\n","torrent":{"xt":"urn:btih:011caf7e8b283121f182a04dc137ba7843c68198","amp;dn":"L%C3%83%C2%A5t.den.r%C3%83%C2%A4tte.komma.in.2008.DVDRIP.XviD-ZEKTORM","amp;tr":["udp%3A%2F%2Ftracker.openbittorrent.com%3A80","udp%3A%2F%2Fopen.demonii.com%3A1337","udp%3A%2F%2Ftracker.coppersurfer.tk%3A6969","udp%3A%2F%2Fexodus.desync.com%3A6969"],"infoHash":"011caf7e8b283121f182a04dc137ba7843c68198","infoHashBuffer":{"type":"Buffer","data":[1,28,175,126,139,40,49,33,241,130,160,77,193,55,186,120,67,198,129,152]},"announce":[],"urlList":[]}}